<?xml version="1.0" encoding="UTF-8" standalone="no"?>
<!-- Created with Inkscape (http://www.inkscape.org/) -->

<svg
   xmlns:dc="http://purl.org/dc/elements/1.1/"
   xmlns:cc="http://creativecommons.org/ns#"
   xmlns:rdf="http://www.w3.org/1999/02/22-rdf-syntax-ns#"
   xmlns:svg="http://www.w3.org/2000/svg"
   xmlns="http://www.w3.org/2000/svg"
   xmlns:sodipodi="http://sodipodi.sourceforge.net/DTD/sodipodi-0.dtd"
   xmlns:inkscape="http://www.inkscape.org/namespaces/inkscape"
   width="1024"
   height="500"
   id="svg2"
   version="1.1"
   inkscape:version="0.91pre2 r13516"
   viewBox="0 0 1024 500.00001"
   sodipodi:docname="wideBanner.svg"
   inkscape:export-filename="C:\Projects\WordsInWord\wideBanner.png"
   inkscape:export-xdpi="90"
   inkscape:export-ydpi="90">
  <defs
     id="defs4" />
  <sodipodi:namedview
     id="base"
     pagecolor="#fffeca"
     bordercolor="#666666"
     borderopacity="1.0"
     inkscape:pageopacity="0"
     inkscape:pageshadow="2"
     inkscape:zoom="0.49497475"
     inkscape:cx="-58.071782"
     inkscape:cy="148.22587"
     inkscape:document-units="px"
     inkscape:current-layer="flowRoot4204"
     showgrid="false"
     inkscape:window-width="1680"
     inkscape:window-height="987"
     inkscape:window-x="1912"
     inkscape:window-y="22"
     inkscape:window-maximized="1" />
  <metadata
     id="metadata7">
    <rdf:RDF>
      <cc:Work
         rdf:about="">
        <dc:format>image/svg+xml</dc:format>
        <dc:type
           rdf:resource="http://purl.org/dc/dcmitype/StillImage" />
        <dc:title></dc:title>
      </cc:Work>
    </rdf:RDF>
  </metadata>
  <g
     inkscape:label="Layer 1"
     inkscape:groupmode="layer"
     id="layer1"
     transform="translate(0,-552.36219)">
    <g
       transform="translate(8.5714185,602.36219)"
       style="font-style:normal;font-variant:normal;font-weight:normal;font-stretch:normal;font-size:180px;line-height:125%;font-family:Aharoni;-inkscape-font-specification:Aharoni;letter-spacing:0px;word-spacing:0px;fill:#000000;fill-opacity:1;stroke:none;stroke-width:1px;stroke-linecap:butt;stroke-linejoin:miter;stroke-opacity:1"
       id="flowRoot4137">
      <path
         d="m 212.32918,194.42698 -3.16406,-1.58203 q -8.26172,14.76562 -18.63281,22.14843 -9.84375,7.03125 -21.26953,7.03125 -19.16016,0 -32.16797,-16.17187 Q 124.087,189.85667 124.087,166.1262 q 0,-24.60938 10.89843,-41.66016 11.07422,-17.40235 27.59766,-17.40235 13.35938,0 26.36719,10.72266 8.61328,7.20703 17.22656,19.6875 l 2.98828,-1.40625 -12.48047,-32.8711 -12.83203,4.21875 -2.98828,-1.05468 q -6.32812,-2.10938 -9.31641,-2.8125 -4.57031,-1.05469 -9.49218,-1.05469 -21.6211,0 -36.21094,19.33594 -14.0625,18.63281 -14.0625,44.29688 0,29.17968 16.17187,47.63672 15.29297,17.40234 37.26563,17.40234 16.69922,0 29.53125,-11.25 10.37109,-9.31641 17.57812,-25.48828 z"
         style="font-style:normal;font-variant:normal;font-weight:normal;font-stretch:normal;font-family:BatangChe;-inkscape-font-specification:BatangChe;text-align:center;text-anchor:middle"
         id="path4146"
         inkscape:connector-curvature="0" />
      <path
         d="m 328.34216,156.70849 -12.82778,65.1953 q -3.15604,16.04012 -11.01959,25.95859 -7.21039,9.33039 -13.41946,8.1087 -2.24217,-0.44117 -3.8707,-3.09057 -0.96976,-1.44488 -2.87816,-5.4034 -1.80659,-4.47595 -3.22591,-6.36757 -2.28448,-2.95762 -5.21656,-3.53453 -4.48433,-0.88234 -7.61442,1.36821 -2.92367,2.11202 -3.806,6.59635 -1.18776,6.0366 2.37471,9.78312 3.80562,4.33183 14.49903,6.43586 14.14289,2.78274 23.18262,-5.8294 10.99923,-10.37641 16.53078,-38.48973 l 13.40469,-68.12737 44.67086,8.78941 -19.44527,98.8278 q -1.15383,5.86413 -5.69765,8.01566 -4.95664,2.42862 -14.44273,0.56215 l -0.88233,4.48433 46.22312,9.09482 0.88233,-4.48433 q -10.34845,-2.03615 -13.60271,-6.43864 -2.56156,-3.37044 -1.40774,-9.23456 l 17.34125,-88.1344 q 1.22169,-6.20908 4.73346,-7.66792 4.06312,-1.52952 14.75654,0.57451 l 0.88233,-4.48433 -95.03337,-18.69869 -0.88233,4.48433 q 9.83103,1.93435 13.28611,4.40568 3.45508,2.47134 2.50488,7.30062 z"
         style="font-style:normal;font-variant:normal;font-weight:normal;font-stretch:normal;font-family:BatangChe;-inkscape-font-specification:BatangChe;text-align:center;text-anchor:middle;fill:#771700;fill-opacity:1"
         id="path4148"
         inkscape:connector-curvature="0" />
      <path
         d="m 525.39559,102.49338 q -25.13672,0 -40.07812,19.86328 -13.53516,18.28126 -13.53516,44.47266 0,26.01563 13.53516,44.1211 14.9414,20.03906 40.07812,20.03906 24.96094,0 40.07813,-20.03906 13.71093,-18.10547 13.71093,-44.1211 0,-26.36719 -13.71093,-44.47266 -14.94141,-19.86328 -40.07813,-19.86328 z m 0,4.57031 q 19.16016,0 30.76172,18.63281 10.72266,16.87501 10.72266,41.3086 0,23.90625 -10.72266,40.78125 -11.60156,18.63282 -30.76172,18.63282 -19.33594,0 -30.9375,-18.63282 -10.54687,-16.875 -10.54687,-40.78125 0,-24.43359 10.54687,-41.3086 11.60156,-18.63281 30.9375,-18.63281 z"
         style="font-style:normal;font-variant:normal;font-weight:normal;font-stretch:normal;font-family:BatangChe;-inkscape-font-specification:BatangChe;text-align:center;text-anchor:middle"
         id="path4150"
         inkscape:connector-curvature="0" />
      <path
         d="m 658.21001,233.65503 57.62893,-6.61918 q 20.95597,-2.40698 32.15142,-14.3091 10.24797,-10.9086 8.70349,-24.35534 -1.42413,-12.39895 -10.0106,-19.37489 -9.40536,-7.94349 -27.24977,-9.2557 14.36242,-5.89614 20.31061,-14.18763 5.37,-7.16346 4.34704,-16.06975 -1.42413,-12.39895 -13.50326,-18.97372 -12.44846,-6.70929 -32.182,-4.44272 l -54.13626,6.21802 0.52151,4.54046 q 9.60482,-1.1032 13.76768,1.24965 3.98823,2.37291 4.73038,8.83434 l 10.18953,88.71361 q 0.78227,6.81069 -2.62427,9.50215 -3.03722,2.82597 -13.16594,3.98934 l 0.52151,4.54046 z m 20.6083,-70.1339 -4.35261,-37.89538 q -0.72209,-6.2868 2.42958,-9.65672 3.34637,-3.21535 11.37948,-4.13802 l 10.12873,-1.16338 q 15.01844,-1.72499 24.45802,4.97601 7.90211,5.63904 8.90502,14.3707 1.12325,9.77946 -6.49104,18.97006 -8.21253,10.144 -21.13538,11.62831 l -25.3218,2.90842 z m 0.52152,4.54046 28.46519,-3.26947 q 14.31991,-1.64477 25.31702,6.29284 10.41303,7.47389 11.69676,18.6504 1.30377,11.35115 -6.81435,20.77656 -8.89102,10.39888 -24.95726,12.24422 l -11.87505,1.36396 q -8.38239,0.96279 -11.98123,-1.10097 -3.77347,-2.04371 -4.53568,-8.67977 l -5.3154,-46.27777 z"
         style="font-style:normal;font-variant:normal;font-weight:normal;font-stretch:normal;font-family:BatangChe;-inkscape-font-specification:BatangChe;text-align:center;text-anchor:middle;fill:#771700;fill-opacity:1"
         id="path4152"
         inkscape:connector-curvature="0" />
      <path
         d="m 882.20921,146.92977 23.02734,63.10547 -46.23047,0 23.20313,-63.10547 z m 7.55859,-13.00782 -9.84375,4.21876 -35.50781,98.26171 q -4.74609,11.95313 -8.26172,15.29297 -3.33984,3.33985 -11.07422,3.33985 l 0,4.57031 39.375,0 0,-4.57031 q -12.30469,0 -15.64453,-3.33985 -3.51562,-3.51562 0.35156,-13.35937 l 8.26172,-23.02735 49.7461,0 10.54687,27.2461 q 3.16406,7.20703 -0.87891,10.01953 -3.51562,2.46094 -15.29296,2.46094 l 0,4.57031 45.70312,0 0,-4.57031 q -7.38281,0 -11.25,-2.98829 -3.86719,-2.8125 -6.67969,-10.19531 L 889.7678,133.92195 Z"
         style="font-style:normal;font-variant:normal;font-weight:normal;font-stretch:normal;font-family:BatangChe;-inkscape-font-specification:BatangChe;text-align:center;text-anchor:middle;fill:#771700;fill-opacity:1"
         id="path4154"
         inkscape:connector-curvature="0" />
      <flowRoot
         xml:space="preserve"
         id="flowRoot4156"
         style="font-style:normal;font-weight:normal;font-size:40px;line-height:125%;font-family:Sans;letter-spacing:0px;word-spacing:0px;fill:#000000;fill-opacity:1;stroke:none;stroke-width:1px;stroke-linecap:butt;stroke-linejoin:miter;stroke-opacity:1"
         transform="matrix(0.92036117,0.39106945,-0.39106945,0.92036117,849.66936,-279.03951)"><flowRegion
           id="flowRegion4158"><rect
             id="rect4160"
             width="240"
             height="102.85714"
             x="70"
             y="338.57144"
             style="font-size:40px" /></flowRegion><flowPara
           id="flowPara4162">сова</flowPara></flowRoot>      <g
         transform="translate(4.6811618,-338.7457)"
         style="font-style:normal;font-weight:normal;font-size:40px;line-height:125%;font-family:Sans;letter-spacing:0px;word-spacing:0px;fill:#000000;fill-opacity:1;stroke:none;stroke-width:1px;stroke-linecap:butt;stroke-linejoin:miter;stroke-opacity:1"
         id="flowRoot4164">
        <path
           d="m 72.798828,379.99481 q -2.246094,1.05468 -3.867187,1.44531 -1.601563,0.41015 -3.203125,0.41015 -2.382813,0 -4.375,-0.68359 -1.992188,-0.70312 -3.417969,-2.10937 -1.425781,-1.40625 -2.226563,-3.55469 -0.78125,-2.14844 -0.78125,-5.01953 0,-5.21485 2.890625,-8.32032 2.890625,-3.125 7.910157,-3.125 1.894531,0 3.710937,0.52735 1.835938,0.52734 3.359375,1.28906 l 0,4.08203 -0.214844,0 q -1.816406,-1.38672 -3.59375,-2.05078 -1.757812,-0.66406 -3.417968,-0.66406 -3.261719,0 -5.058594,2.1875 -1.777344,2.1875 -1.777344,6.07422 0,3.88672 1.777344,6.03515 1.777344,2.14844 5.058594,2.14844 1.152343,0 2.285156,-0.29297 1.152344,-0.29297 2.089844,-0.76172 0.742187,-0.37109 1.523437,-0.8789 0.800781,-0.52735 1.113281,-0.78125 l 0.214844,0 0,4.04297 z"
           style="fill:#0064fb;fill-opacity:1"
           id="path4228" />
        <path
           d="m 95.474609,381.36199 -3.671875,0 0,-18.73047 -8.144531,0 q -0.05859,1.6211 -0.117187,3.125 -0.05859,1.50391 -0.117188,2.71485 -0.136719,3.26172 -0.449219,5.21484 -0.3125,1.9336 -0.820312,3.22266 -0.46875,1.21094 -1.054688,1.97265 -0.566406,0.74219 -1.230468,1.34766 -0.664063,0.58594 -1.484375,0.87891 -0.800782,0.29297 -1.757813,0.29297 -0.332031,0 -0.976562,-0.0195 -0.625,-0.0195 -0.820313,-0.0195 l 0,-3.20312 0.195313,0 q 0.15625,0 0.449218,0.0195 0.292969,0.0195 0.488282,0.0195 0.46875,0 0.957031,-0.13672 0.507812,-0.13672 0.859375,-0.50781 0.996094,-0.97656 1.601562,-3.30078 0.605469,-2.32422 0.800782,-6.71875 0.07813,-1.60156 0.136718,-3.78906 0.07813,-2.20704 0.136719,-4.19922 l 15.019531,0 0,21.8164 z"
           style=""
           id="path4230" />
        <path
           d="m 121.31445,370.46356 q 0,5.33203 -2.73437,8.41796 -2.73438,3.08594 -7.32422,3.08594 -4.62891,0 -7.36328,-3.08594 -2.71485,-3.08593 -2.71485,-8.41796 0,-5.33204 2.71485,-8.41797 2.73437,-3.10547 7.36328,-3.10547 4.58984,0 7.32422,3.10547 2.73437,3.08593 2.73437,8.41797 z m -3.78906,0 q 0,-4.23829 -1.66016,-6.28907 -1.66015,-2.07031 -4.60937,-2.07031 -2.98828,0 -4.64844,2.07031 -1.64062,2.05078 -1.64062,6.28907 0,4.10156 1.66015,6.23046 1.66016,2.10938 4.62891,2.10938 2.92969,0 4.58984,-2.08984 1.67969,-2.10938 1.67969,-6.25 z"
           style="fill:#0064fb;fill-opacity:1"
           id="path4232" />
        <path
           d="m 145.2793,381.36199 -3.67188,0 0,-9.82422 -10.91797,0 0,9.82422 -3.67187,0 0,-21.8164 3.67187,0 0,8.82812 10.91797,0 0,-8.82812 3.67188,0 0,21.8164 z"
           style="fill:#0064fb;fill-opacity:1"
           id="path4234" />
      </g>
      <g
         transform="matrix(0.95674879,0.29091537,-0.29091537,0.95674879,324.24344,-60.741749)"
         style="font-style:normal;font-weight:normal;font-size:40px;line-height:125%;font-family:Sans;letter-spacing:0px;word-spacing:0px;fill:#000000;fill-opacity:1;stroke:none;stroke-width:1px;stroke-linecap:butt;stroke-linejoin:miter;stroke-opacity:1"
         id="flowRoot4172">
        <path
           d="m 109.7832,377.07684 -3.67187,0 0,-18.73047 -8.144533,0 q -0.05859,1.62109 -0.117188,3.125 -0.05859,1.5039 -0.117187,2.71484 -0.136719,3.26172 -0.449219,5.21485 -0.3125,1.93359 -0.820312,3.22265 -0.46875,1.21094 -1.054688,1.97266 -0.566406,0.74219 -1.230469,1.34765 -0.664062,0.58594 -1.484375,0.87891 -0.800781,0.29297 -1.757812,0.29297 -0.332031,0 -0.976563,-0.0195 -0.625,-0.0195 -0.820312,-0.0195 l 0,-3.20313 0.195312,0 q 0.15625,0 0.449219,0.0195 0.292969,0.0195 0.488281,0.0195 0.46875,0 0.957032,-0.13671 0.507812,-0.13672 0.859375,-0.50782 0.996093,-0.97656 1.601562,-3.30078 0.605469,-2.32422 0.800781,-6.71875 0.07813,-1.60156 0.136719,-3.78906 0.07813,-2.20703 0.136719,-4.19922 l 15.019528,0 0,21.81641 z"
           style="fill:#0064fb;fill-opacity:1"
           id="path4213" />
        <path
           d="m 135.62305,366.1784 q 0,5.33203 -2.73438,8.41797 -2.73437,3.08594 -7.32422,3.08594 -4.6289,0 -7.36328,-3.08594 -2.71484,-3.08594 -2.71484,-8.41797 0,-5.33203 2.71484,-8.41797 2.73438,-3.10547 7.36328,-3.10547 4.58985,0 7.32422,3.10547 2.73438,3.08594 2.73438,8.41797 z m -3.78907,0 q 0,-4.23828 -1.66015,-6.28906 -1.66016,-2.07032 -4.60938,-2.07032 -2.98828,0 -4.64843,2.07032 -1.64063,2.05078 -1.64063,6.28906 0,4.10156 1.66016,6.23047 1.66015,2.10937 4.6289,2.10937 2.92969,0 4.58985,-2.08984 1.67968,-2.10938 1.67968,-6.25 z"
           style="fill:#0064fb;fill-opacity:1"
           id="path4215" />
        <path
           d="m 159.58789,377.07684 -3.67187,0 0,-18.65235 -10.91797,0 0,18.65235 -3.67188,0 0,-21.81641 18.26172,0 0,21.81641 z"
           style=""
           id="path4217" />
        <path
           d="m 183.74805,377.07684 -3.65235,0 0,-2.32422 q -0.48828,0.33203 -1.32812,0.9375 -0.82031,0.58594 -1.60156,0.9375 -0.91797,0.44922 -2.10938,0.74219 -1.19141,0.3125 -2.79297,0.3125 -2.94922,0 -5,-1.95313 -2.05078,-1.95312 -2.05078,-4.98047 0,-2.48047 1.05469,-4.0039 1.07422,-1.54297 3.04687,-2.42188 1.99219,-0.87891 4.78516,-1.19141 2.79297,-0.3125 5.99609,-0.46875 l 0,-0.5664 q 0,-1.25 -0.44922,-2.07031 -0.42968,-0.82032 -1.25,-1.28907 -0.78125,-0.44922 -1.875,-0.60547 -1.09375,-0.15625 -2.28515,-0.15625 -1.44531,0 -3.22266,0.39063 -1.77734,0.37109 -3.67187,1.09375 l -0.19532,0 0,-3.73047 q 1.07422,-0.29297 3.10547,-0.64453 2.03125,-0.35156 4.00391,-0.35156 2.30469,0 4.00391,0.39062 1.71875,0.3711 2.96875,1.28906 1.23046,0.89844 1.875,2.32422 0.64453,1.42578 0.64453,3.53516 l 0,14.80469 z m -3.65235,-5.3711 0,-6.07422 q -1.67968,0.0977 -3.96484,0.29297 -2.26563,0.19532 -3.59375,0.56641 -1.58203,0.44922 -2.55859,1.40625 -0.97657,0.9375 -0.97657,2.59766 0,1.875 1.13282,2.83203 1.13281,0.9375 3.45703,0.9375 1.93359,0 3.53515,-0.74219 1.60157,-0.76172 2.96875,-1.81641 z"
           style=""
           id="path4219" />
        <path
           d="m 207.18555,375.70965 q -2.2461,1.05469 -3.86719,1.44531 -1.60156,0.41016 -3.20313,0.41016 -2.38281,0 -4.375,-0.6836 -1.99218,-0.70312 -3.41796,-2.10937 -1.42579,-1.40625 -2.22657,-3.55469 -0.78125,-2.14844 -0.78125,-5.01953 0,-5.21484 2.89063,-8.32031 2.89062,-3.125 7.91015,-3.125 1.89454,0 3.71094,0.52734 1.83594,0.52735 3.35938,1.28906 l 0,4.08204 -0.21485,0 q -1.8164,-1.38672 -3.59375,-2.05079 -1.75781,-0.66406 -3.41797,-0.66406 -3.26171,0 -5.05859,2.1875 -1.77734,2.1875 -1.77734,6.07422 0,3.88672 1.77734,6.03516 1.77734,2.14843 5.05859,2.14843 1.15235,0 2.28516,-0.29296 1.15234,-0.29297 2.08984,-0.76172 0.74219,-0.3711 1.52344,-0.87891 0.80078,-0.52734 1.11328,-0.78125 l 0.21485,0 0,4.04297 z"
           style="fill:#0064fb;fill-opacity:1"
           id="path4221" />
        <path
           d="m 228.29883,358.48309 -7.89063,0 0,18.59375 -3.67187,0 0,-18.59375 -7.89063,0 0,-3.22266 19.45313,0 0,3.22266 z"
           style=""
           id="path4223" />
        <path
           d="m 245.74023,370.37762 q 0,-0.9961 -0.35156,-1.73828 -0.33203,-0.76172 -1.11328,-1.23047 -0.82031,-0.48828 -1.875,-0.58594 -1.03516,-0.0977 -2.98828,-0.0977 l -3.63281,0 0,7.42188 3.55468,0 q 1.95313,0 3.02735,-0.15625 1.07422,-0.17578 1.85547,-0.64453 0.80078,-0.50781 1.15234,-1.19141 0.37109,-0.70312 0.37109,-1.77734 z m 3.78907,-0.0586 q 0,1.58204 -0.64453,2.8711 -0.625,1.28906 -1.71875,2.08984 -1.28907,0.97656 -2.75391,1.38672 -1.46484,0.41016 -3.76953,0.41016 l -8.53516,0 0,-21.81641 3.67188,0 0,8.49609 4.96093,0 q 2.46094,0 3.8086,0.25391 1.36719,0.25391 2.71484,1.25 1.13281,0.83984 1.69922,2.14844 0.56641,1.30859 0.56641,2.91015 z"
           style="fill:#0064fb;fill-opacity:1"
           id="path4225" />
      </g>
      <flowRoot
         xml:space="preserve"
         id="flowRoot4180"
         style="font-style:normal;font-weight:normal;font-size:40px;line-height:125%;font-family:Sans;letter-spacing:0px;word-spacing:0px;fill:#000000;fill-opacity:1;stroke:none;stroke-width:1px;stroke-linecap:butt;stroke-linejoin:miter;stroke-opacity:1"
         transform="matrix(0.87442991,-0.48515186,0.48515186,0.87442991,-166.03073,75.710774)"><flowRegion
           id="flowRegion4182"><rect
             id="rect4184"
             width="181.42857"
             height="60"
             x="61.42857"
             y="351.42856" /></flowRegion><flowPara
           id="flowPara4186">ум</flowPara></flowRoot>      <flowRoot
         xml:space="preserve"
         id="flowRoot4188"
         style="font-style:normal;font-weight:normal;font-size:40px;line-height:125%;font-family:Sans;letter-spacing:0px;word-spacing:0px;fill:#000000;fill-opacity:1;stroke:none;stroke-width:1px;stroke-linecap:butt;stroke-linejoin:miter;stroke-opacity:1"
         transform="translate(263.2526,-145.88855)"><flowRegion
           id="flowRegion4190"><rect
             id="rect4192"
             width="267.14285"
             height="55.714287"
             x="280"
             y="414.28571" /></flowRegion><flowPara
           id="flowPara4194">эрудиция</flowPara></flowRoot>      <flowRoot
         xml:space="preserve"
         id="flowRoot4196"
         style="font-style:normal;font-weight:normal;font-size:40px;line-height:125%;font-family:Sans;letter-spacing:0px;word-spacing:0px;fill:#000000;fill-opacity:1;stroke:none;stroke-width:1px;stroke-linecap:butt;stroke-linejoin:miter;stroke-opacity:1"
         transform="translate(124.68117,-358.7457)"><flowRegion
           id="flowRegion4198"><rect
             id="rect4200"
             width="234.28572"
             height="72.85714"
             x="187.14285"
             y="407.14285" /></flowRegion><flowPara
           id="flowPara4202">знания</flowPara></flowRoot>      <g
         transform="matrix(0.98809468,-0.153847,0.153847,0.98809468,275.64162,-362.46964)"
         style="font-style:normal;font-weight:normal;font-size:40px;line-height:125%;font-family:Sans;letter-spacing:0px;word-spacing:0px;fill:#000000;fill-opacity:1;stroke:none;stroke-width:1px;stroke-linecap:butt;stroke-linejoin:miter;stroke-opacity:1"
         id="flowRoot4204">
        <path
           d="m 227.92187,444.74871 q 0,5.33203 -2.73437,8.41797 -2.73438,3.08594 -7.32422,3.08594 -4.62891,0 -7.36328,-3.08594 -2.71484,-3.08594 -2.71484,-8.41797 0,-5.33203 2.71484,-8.41797 2.73437,-3.10547 7.36328,-3.10547 4.58984,0 7.32422,3.10547 2.73437,3.08594 2.73437,8.41797 z m -3.78906,0 q 0,-4.23828 -1.66015,-6.28906 -1.66016,-2.07031 -4.60938,-2.07031 -2.98828,0 -4.64844,2.07031 -1.64062,2.05078 -1.64062,6.28906 0,4.10156 1.66015,6.23047 1.66016,2.10938 4.62891,2.10938 2.92969,0 4.58984,-2.08985 1.67969,-2.10937 1.67969,-6.25 z"
           style="fill:#fb00f5;fill-opacity:1"
           id="path4237" />
        <path
           d="m 249.66016,437.0534 q 1.36718,1.36719 2.07031,3.32031 0.70312,1.9336 0.70312,4.55078 0,4.88282 -2.92968,8.10547 -2.92969,3.22266 -7.20704,3.22266 -2.10937,0 -3.88671,-0.70313 -1.77735,-0.72265 -3.02735,-2.20703 -1.5625,-1.85547 -2.34375,-4.66797 -0.76172,-2.83203 -0.76172,-6.89453 0,-1.46484 0.13672,-2.96875 0.13672,-1.52344 0.625,-3.63281 0.39063,-1.81641 1.13281,-3.49609 0.76172,-1.67969 1.79688,-2.71485 1.40625,-1.42578 3.69141,-2.28515 2.30468,-0.87891 6.09375,-1.21094 1.54296,-0.13672 2.87109,-0.21485 1.32812,-0.0977 2.38281,-0.17578 l 0,3.37891 q -1.28906,0.0781 -2.55859,0.15625 -1.25,0.0781 -2.5,0.19531 -2.5,0.21485 -4.53125,0.82031 -2.01172,0.60547 -2.94922,1.5625 -1.03516,1.03516 -1.5625,2.71485 -0.50781,1.66015 -0.66406,3.16406 1.46484,-1.05469 3.20312,-1.75781 1.75781,-0.72266 3.73047,-0.72266 1.83594,0 3.53516,0.60547 1.69922,0.60547 2.94922,1.85547 z m -0.95704,8.08594 q 0,-3.61328 -1.73828,-5.39063 -1.73828,-1.79687 -4.58984,-1.79687 -1.69922,0 -3.26172,0.54687 -1.5625,0.52735 -2.96875,1.42578 -0.0391,0.48828 -0.0781,1.15235 -0.0195,0.64453 -0.0195,1.1914 0,3.39844 0.56641,5.50782 0.56641,2.10937 1.60156,3.35937 0.89844,1.05469 1.95313,1.50391 1.05469,0.42968 2.26562,0.42968 2.94922,0 4.60938,-2.1289 1.66015,-2.12891 1.66015,-5.80078 z"
           style="fill:#fb00f5;fill-opacity:1"
           id="path4239" />
        <path
           d="m 277.10156,433.83074 -12.73437,29.86328 -3.92578,0 4.0625,-9.10156 -8.69141,-20.76172 3.98437,0 6.69922,16.17188 6.75782,-16.17188 3.84765,0 z"
           style=""
           id="path4241" />
        <path
           d="m 298.89844,455.64715 -3.67188,0 0,-8.37891 q -1.77734,0.54688 -3.39844,0.87891 -1.62109,0.33203 -3.53515,0.33203 -3.51563,0 -5.3711,-1.71875 -1.85546,-1.73828 -1.85546,-5 l 0,-7.92969 3.67187,0 0,6.05469 q 0,1.25 0.15625,2.24609 0.15625,0.97657 0.66406,1.69922 0.50782,0.70313 1.42578,1.07422 0.91797,0.3711 2.5586,0.3711 1.34765,0 2.92969,-0.25391 1.58203,-0.27344 2.7539,-0.625 l 0,-10.56641 3.67188,0 0,21.81641 z"
           style=""
           id="path4243" />
        <path
           d="m 324.38672,445.11981 -16.07422,0 q 0,2.01171 0.60547,3.51562 0.60547,1.48438 1.66015,2.44141 1.01563,0.9375 2.40235,1.40625 1.40625,0.46875 3.08594,0.46875 2.22656,0 4.47265,-0.87891 2.26563,-0.89844 3.22266,-1.75781 l 0.19531,0 0,4.0039 q -1.85547,0.78125 -3.78906,1.3086 -1.9336,0.52734 -4.0625,0.52734 -5.42969,0 -8.47656,-2.92969 -3.04688,-2.94921 -3.04688,-8.35937 0,-5.35156 2.91016,-8.49609 2.92968,-3.14454 7.69531,-3.14454 4.41406,0 6.79687,2.57813 2.40235,2.57812 2.40235,7.32422 l 0,1.99219 z m -3.57422,-2.8125 q -0.0195,-2.89063 -1.46484,-4.47266 -1.42579,-1.58203 -4.35547,-1.58203 -2.94922,0 -4.70703,1.73828 -1.73829,1.73828 -1.97266,4.31641 l 12.5,0 z"
           style="fill:#fb00f5;fill-opacity:1"
           id="path4245" />
        <path
           d="m 348.21484,455.64715 -3.67187,0 0,-9.82422 -10.91797,0 0,9.82422 -3.67188,0 0,-21.81641 3.67188,0 0,8.82813 10.91797,0 0,-8.82813 3.67187,0 0,21.81641 z"
           style="fill:#fb00f5;fill-opacity:1"
           id="path4247" />
        <path
           d="m 373.80078,455.64715 -3.63281,0 0,-16.38672 -11.42578,16.38672 -3.32032,0 0,-21.81641 3.63282,0 0,16.15235 11.30859,-16.15235 3.4375,0 0,21.81641 z"
           style=""
           id="path4249" />
        <path
           d="m 399.30859,445.11981 -16.07422,0 q 0,2.01171 0.60547,3.51562 0.60547,1.48438 1.66016,2.44141 1.01562,0.9375 2.40234,1.40625 1.40625,0.46875 3.08594,0.46875 2.22656,0 4.47266,-0.87891 2.26562,-0.89844 3.22265,-1.75781 l 0.19532,0 0,4.0039 q -1.85547,0.78125 -3.78907,1.3086 -1.93359,0.52734 -4.0625,0.52734 -5.42968,0 -8.47656,-2.92969 -3.04687,-2.94921 -3.04687,-8.35937 0,-5.35156 2.91015,-8.49609 2.92969,-3.14454 7.69531,-3.14454 4.41407,0 6.79688,2.57813 2.40234,2.57812 2.40234,7.32422 l 0,1.99219 z m -3.57422,-2.8125 q -0.0195,-2.89063 -1.46484,-4.47266 -1.42578,-1.58203 -4.35547,-1.58203 -2.94922,0 -4.70703,1.73828 -1.73828,1.73828 -1.97266,4.31641 l 12.5,0 z"
           style=""
           id="path4251" />
      </g>
    </g>
  </g>
</svg>
